<?xml version="1.0" encoding="utf-8"?>
<!-- Generator: Adobe Illustrator 23.0.2, SVG Export Plug-In . SVG Version: 6.00 Build 0)  -->
<svg version="1.1" id="Layer_1" xmlns="http://www.w3.org/2000/svg" xmlns:xlink="http://www.w3.org/1999/xlink" x="0px" y="0px"
	 viewBox="0 0 1920 1920" style="enable-background:new 0 0 1920 1920;" xml:space="preserve">
<style type="text/css">
	.st0{fill-rule:evenodd;clip-rule:evenodd;fill:#EC1C24;}
	.st1{fill-rule:evenodd;clip-rule:evenodd;fill:#EC943D;}
	.st2{fill:#EC943D;}
</style>
<rect width="1920" height="1920"/>
<g>
	<path class="st0" d="M791.8,973.42l-5.17,8.33h53.89c0,0,10.09,0.4,18.44-15.12L877,937.19h13.28l6.64-11.62H740.5l-8.13,12.02
		h13.94l-24.47,43.39c0,0-8.58,17.22,14.15,17.22h59.86c0,0,6.03-0.97,3.02,6.78l-1.92,4.28h50.19l5.39-12.02
		c0,0,6.2-8.13-11.83-8.13h-61.78c0,0-7.74-0.58-3.86-8.31l25.09-43.6h22.1l-19.54,31.97C802.72,969.16,801.24,973.63,791.8,973.42"
		/>
	<path class="st0" d="M999.29,964.51c7.09-1.16,13.52-9.89,13.52-9.89l8.79-17.6c4.52-10.47-13.3-11.83-13.3-11.83h-77.04
		c-15.89,0-23.16,7.76-23.16,7.76l-9.44,14.12h50.19l4.94-6.76c0,0,1.94-3.12,4.95-2.71h9.43c0,0,4.94,0.18,0.62,6.2l-4.71,7.34
		c0,0-3.65,5.62-11.15,5.44l-20.59,0.18l-6.23,10.49h12.87c17.19-0.79,10.31,8.11,10.31,8.11l-4.69,8.13
		c-3.03,6.99-13.11,5.62-13.11,5.62c-10.53,0-6.65-4.66-6.65-4.66l3.87-6.2h-50.01l-6.45,11.05c-4.92,10.09,6.68,10.09,6.68,10.09
		h93.12c12.44,0,17.35-6.99,17.35-6.99l9.9-15.31C1004.64,968.77,999.29,964.51,999.29,964.51"/>
	<path class="st0" d="M1116.43,925.77h-74.65l-6.45,11.05h10.52l-11.39,18.38c-1.92,1.74-5.34,1.55-5.34,1.55h-13.1l-6.2,10.49h9.43
		c6.43,0,6.87,0.95,6,2.89l-18.68,31.19h50.44l38.42-64.49h13.3L1116.43,925.77"/>
	<path class="st0" d="M1219.64,925.77h-74.66l-6.45,11.05h10.51l-11.58,15.68c-4.07,4.65-12.44,4.24-12.44,4.24h-16.76l-6.21,10.49
		h5.39c6.62-0.23,5.35,1.92,3.42,5.02l-7.31,11.81c-2.13,3.29-4.91,15.1,7.73,15.7h58.82l5.16-9.89c-5.39-0.19-13.97-0.19-18.9-0.19
		c-6.43,0-3.21-4.84-3.21-4.84l12.01-17.23c8.82,0.95,15.04-4.63,18.03-8.71l15.45-22.07h13.33L1219.64,925.77"/>
	<polyline class="st0" points="1390.67,907.55 1344.96,907.55 1337.02,918.8 1382.74,918.8 1390.67,907.55 	"/>
	<path class="st0" d="M1645.36,925.57l-6.67,11.44h23.84c5.99,0,7.71,2.89,5.34,6.39l-1.7,3.12c0,0-2.57,3.06-9.65,3.06l-43.79-0.21
		c0,0-7.29-0.93-10.95,6.23l-6.03,11.23c0,0-8.13,15.31,18.9,16.46h85.82c0,0,8.6,0,8.18,4.07l-8.18,13.96h48.94l36.89-60.43
		c0,0,2.81-3.87,8.4-3.87h14.16c0,0,6.21,0.18,0.62,8.54l-32.82,55.76h48.92l36.7-60.64c0,0,2.37-3.66,8.35-3.66h7.1l7.52-11.44
		H1645.36 M1734.2,944.18l-14.17,24.38c-1.72,2.15-4.51,3.7-14.17,3.7c-10.71,0-50.21,0-50.21,0s-8.78-1.94-5.37-8.91
		c0,0,0.65-3.87,7.33-3.87h43.31c0,0,7.74,0,12.43-8.15l8.6-14.31h10.97C1732.91,937.01,1738.91,937.19,1734.2,944.18z"/>
	<path class="st0" d="M1380.77,937.77l7.96-12.39h-122.31l-7.93,12.78h58.36c0,0,7.28-0.56,4.92,2.73l-2.13,3.1h-57.51
		c0,0-7.08,0.19-10.32,4.63l-9.83,15.49c-2.18,4.08-0.66,8.91,15.65,8.91h32.18c0,0,10.92-0.76,7.3,6.21l-4.73,7.76
		c0,0-2.57,4.44-6.85,4.26h-8.82c0,0-5.38,0.77-2.54-4.66l3.62-6.79h-45.5l-7.92,13.01c0,0-6.22,5.79,1.28,7.96l-2.59,4.22
		c0,0-3.19,6.21,2.39,6.58h28.53c0,0,5.81-1.34,7.96-6.58l2.14-3.66h60.95c0,0,10.49,1.16,16.28-10.47l8.8-14.72
		c0,0,8.38-13.15-17.36-14.73h-33.68c0,0-8.18,1.37-4.32-4.24c0,0,2.38-3.33,9.03-3.33h51.05v-0.16c4.76,0.37,7.96-2.54,9.69-4.3
		l7.28-11.6H1380.77"/>
	<path class="st0" d="M1611.89,925.38l-16.32,0.19l6.64-10.07c0,0,0.9-7.96-18.64-7.75h-139.68c0,0-20.84,0.95-30.48,17.62h-12.22
		l-7.31,12.22h12.66l-40.34,63.72h48.93l39.05-63.16h78.75c0,0,7.52-0.56,5.13,2.73l-2.35,3.1h-57.49c0,0-10.09,0.99-16.32,11.62
		l-2.99,4.82c0,0-6.02,11.83,15.01,12.58h32.19c0,0,10.93-0.76,7.08,6.21l-4.74,7.76c0,0-2.33,4.44-6.84,4.26h-5.38
		c0,0-5.34,0.77-2.78-4.66l3.85-6.79h-47.6l-8.2,13.01c0,0-2.55,8.11,10.52,8.52h89.06c0,0,10.51,1.16,16.3-10.47l8.81-14.72
		c0,0,8.58-13.15-17.37-14.73h-33.47c0,0-8.17,1.37-4.52-4.24c0,0,2.38-3.33,9.23-3.33h50.88v-0.16c5.11,0.37,8.56-2.92,9.86-4.66
		l7.08-11.23h15.67L1611.89,925.38 M1549.01,920.34l-3.45,5.23l-84.53-0.39c7.75-7.94,14.82-7.16,14.82-7.16h62.44
		C1549.45,918.02,1549.01,920.34,1549.01,920.34z"/>
	<path class="st0" d="M1708.99,1049.21l-71.14,72.29h56.99l10.94-10.67h29.98l-4.48,10.86h60.6l23.98-72.49H1708.99
		 M1743.25,1092.58c-5.99,0-12.86,0-18.41,0l31.26-30.08L1743.25,1092.58z"/>
	<polyline class="st0" points="1603.37,1049.21 1556.45,1121.5 1623.28,1121.5 1669.36,1049.21 1603.37,1049.21 	"/>
	<polyline class="st0" points="1165.94,1049.21 1119.23,1121.5 1186.08,1121.5 1231.7,1049.21 1165.94,1049.21 	"/>
	<polyline class="st0" points="1347.18,1049.21 1330.02,1076.99 1312.91,1049.21 1252.7,1049.21 1208.34,1121.5 1263.42,1121.5 
		1282.91,1092.02 1302.17,1121.5 1357.89,1121.5 1404.59,1049.21 1347.18,1049.21 	"/>
	<path class="st0" d="M1550.68,1049.21h-122.76l-46.25,72.29h134.5c0,0,20.81,1.71,31.73-20l21.63-36.14
		C1569.53,1065.37,1584.09,1049.21,1550.68,1049.21 M1494.75,1078.69l-6.64,13.13c-6.21,14.47-16.27,13.68-16.27,13.68h-9.86
		l19.08-34.61l10.9,0.37C1498.19,1072.59,1494.75,1078.69,1494.75,1078.69z"/>
	<path class="st0" d="M716.49,1049.21l-70.03,72.29h56.98l10.68-10.67h29.8l-4.28,10.67h60.41l24.41-72.29H716.49 M751.64,1092.58
		c-6,0-13.09,0-18.65,0l31.28-30.08L751.64,1092.58z"/>
	<polyline class="st0" points="858.1,1049.4 812.05,1121.5 878.89,1121.5 924.73,1049.4 858.1,1049.4 	"/>
	<path class="st0" d="M1073.59,1049.4h-126.6l-46.06,72.1h66.42l15.21-25.33l18.85,25.33h66.41l-20.15-20.37
		c13.72,0.97,20.81-10.28,20.81-10.28l14.55-23.78C1090.74,1051.46,1073.59,1049.4,1073.59,1049.4 M1014.47,1077.55l-3.64,5.12
		c0,0-3.41,5.16-21.41,3.06l8.15-14.84h13.47C1011.04,1070.9,1017.91,1072.22,1014.47,1077.55z"/>
	<path class="st0" d="M22.32,962.11c84.93,2.85,168.87-3.2,251.38-22.32c38.72-17.02,84.68-44.2,135.59-78.33
		c109.23-72.1,216.21-146.48,323-221.06l94.32-0.42L643.85,923.79c-28.2,36.95-24.91,56.8,24.41,72.86
		c-64.09-4.44-127.17-1.83-189.06,9.28c-53.33,11.56-86.73,26.14-88.01,45.47c-3.19,24.59,55,52.37,111.6,58.53
		c24.01,2.61,48,3.26,71.99,2.54c-63.05,12.81-124.77,16.28-182.31-9.7c-32.63-15.72-63.74-40.33-95.18-63.16
		C212.43,987.83,148.86,978.73,22.32,962.11"/>
	<path class="st1" d="M322.54,915.82l-84.63,64l68.23-42.54c18.69-12.18,38.43-23.32,58.53-34.1c28.31-15.3,52.94-36.1,77.06-57.7
		l-4-3.04C401.02,867.91,362.74,892.43,322.54,915.82"/>
	<path class="st2" d="M322.54,915.82l-0.33-0.44l-84.64,63.98l0.63,0.93l68.22-42.54c18.69-12.18,38.43-23.3,58.5-34.08
		c28.38-15.33,53.04-36.19,77.18-57.79l0.49-0.44l-4.52-3.45l-0.33-0.25l-0.33,0.23c-36.69,25.47-74.96,49.99-115.14,73.35
		L322.54,915.82l0.28,0.48c40.2-23.39,78.5-47.91,115.22-73.4l-0.32-0.46l-0.33,0.44l4,3.05l0.34-0.44l-0.37-0.42
		c-24.11,21.6-48.71,42.39-76.96,57.63c-20.09,10.79-39.85,21.93-58.57,34.13l-57.76,36l74.8-56.56L322.54,915.82"/>
	<path class="st1" d="M445.94,849.27c-25.49,19.36-47.84,40.45-65.71,64.02c-29.18,40.5-58.38,77.94-87.55,114.92
		c32.9-37.7,70.28-74.95,109.45-111.98c18.95-21.32,34.32-42.6,47.69-63.91L445.94,849.27"/>
	<path class="st2" d="M445.94,849.27l-0.34-0.44c-25.5,19.38-47.9,40.5-65.81,64.11c-29.17,40.5-58.38,77.94-87.54,114.94l0.85,0.7
		c32.89-37.69,70.25-74.93,109.41-111.95c19-21.39,34.39-42.68,47.79-64.02l0.26-0.42l-4.29-3.36l-0.33-0.26l-0.34,0.26
		L445.94,849.27l-0.35,0.44l3.89,3.05l0.34-0.44l-0.47-0.3c-13.36,21.3-28.72,42.56-47.64,63.84c-39.15,37-76.53,74.26-109.46,112
		l0.42,0.35l0.43,0.35c29.18-37,58.39-74.44,87.56-114.96c17.83-23.5,40.15-44.55,65.6-63.9L445.94,849.27l-0.35,0.44L445.94,849.27
		"/>
	<path class="st1" d="M455.21,854.32c-20.25,26.84-36.52,53.91-45.65,81.44c-16.11,42.03-32.44,84.1-49.95,126.15
		c19.38-38.44,39.45-75.5,60.21-111.18c18.48-30.1,31.85-61.68,40.59-94.58L455.21,854.32"/>
	<path class="st2" d="M455.21,854.32l-0.45-0.35c-20.28,26.88-36.57,54-45.72,81.62c-16.1,42-32.44,84.09-49.93,126.12l0.99,0.46
		c19.37-38.44,39.44-75.48,60.2-111.14c18.49-30.14,31.9-61.77,40.63-94.72l0.13-0.51l-5.68-2.01l-0.38-0.14l-0.25,0.32
		L455.21,854.32l-0.19,0.53l5.2,1.85l0.19-0.53l-0.55-0.14c-8.71,32.85-22.07,64.37-40.52,94.44
		c-20.77,35.68-40.85,72.75-60.23,111.21l0.49,0.25l0.52,0.21c17.5-42.05,33.85-84.14,49.95-126.17c9.1-27.46,25.33-54.5,45.56-81.3
		L455.21,854.32l-0.19,0.53L455.21,854.32"/>
	<path class="st1" d="M466.15,858.1c-14.41,35.26-21.83,70.46-22.33,105.68c-0.76,17.53-1.91,35.05-3.37,52.56l6.32-2.43
		c4.64-23.3,10.12-46.59,16.85-69.9c5.78-28.34,7.76-56.71,7.97-85.05L466.15,858.1"/>
	<path class="st2" d="M466.15,858.1l-0.52-0.21c-14.42,35.31-21.88,70.58-22.35,105.89c-0.76,17.5-1.91,34.99-3.37,52.52l-0.07,0.86
		l7.14-2.73l0.29-0.11l0.06-0.3c4.62-23.31,10.11-46.58,16.85-69.86c5.79-28.44,7.76-56.84,7.99-85.21v-0.49l-5.93-0.92l-0.43-0.07
		l-0.17,0.4L466.15,858.1l-0.09,0.55l5.46,0.86l0.08-0.55h-0.55c-0.23,28.32-2.2,56.64-7.96,84.95
		c-6.72,23.27-12.23,46.58-16.85,69.9l0.54,0.11l-0.19-0.51l-6.32,2.41l0.19,0.53l0.56,0.05c1.47-17.53,2.62-35.05,3.38-52.58
		c0.47-35.19,7.9-70.32,22.27-105.51L466.15,858.1l-0.09,0.55L466.15,858.1"/>
	<path class="st1" d="M477.1,858.91c-2.33,37.62-2.19,74.46,12.2,112.07l7.15,32l7.18-0.84l-2.1-31.16
		c0.7-38.83-7.41-76.11-18.53-112.88L477.1,858.91"/>
	<path class="st2" d="M477.1,858.91l-0.56-0.05c-0.65,10.61-1.11,21.18-1.11,31.7c0,26.83,2.98,53.51,13.35,80.62l0.52-0.19
		l-0.54,0.11l7.25,32.49l7.67-0.9l0.52-0.05l-2.14-31.68c0.04-1.53,0.05-3.12,0.05-4.68c0-37.21-7.91-73.03-18.6-108.32l-0.14-0.46
		l-6.35,0.86l-0.45,0.07l-0.04,0.44L477.1,858.91l0.07,0.55l5.89-0.81l-0.07-0.55l-0.54,0.16C493.13,893.52,501,929.22,501,966.27
		c0,1.57-0.01,3.13-0.04,4.7l2.06,30.68l-6.14,0.72l-7.05-31.54l-0.01-0.04c-10.32-26.95-13.3-53.49-13.3-80.23
		c0-10.51,0.47-21.03,1.12-31.61L477.1,858.91l0.07,0.55L477.1,858.91"/>
	<path class="st1" d="M488.58,856.54c8.45,38.36,21.2,74.47,44.96,107.25l17.67,32.46h7.6l-13.44-34.92
		c-12.89-41.81-27.42-70.97-51.43-106.49L488.58,856.54"/>
	<path class="st2" d="M488.58,856.54l-0.55,0.12c8.47,38.41,21.24,74.58,45.05,107.46l0.45-0.33l-0.48,0.26l17.82,32.74h8.75
		l-13.74-35.68c-12.88-41.8-27.46-71.04-51.49-106.58l-0.24-0.35l-5.76,1.83l-0.48,0.14l0.11,0.51L488.58,856.54l0.17,0.53
		l5.35-1.71l-0.16-0.53l-0.46,0.32c23.97,35.49,38.48,64.58,51.35,106.33l13.16,34.2h-6.45l-17.53-32.19l-0.03-0.02
		c-23.7-32.7-36.42-68.72-44.87-107.06L488.58,856.54l0.17,0.53L488.58,856.54"/>
	<path class="st1" d="M498.57,851.8c19.86,36.3,44.25,68.88,76.62,94.73l23.18,23.99l24.01,24.03l5.46,0.47
		c-18.69-21.72-36.15-43.72-51.37-66.17c-20.78-30.86-45.99-56.82-73.69-80.02L498.57,851.8"/>
	<path class="st2" d="M498.57,851.8l-0.48,0.26c19.89,36.35,44.31,68.98,76.76,94.91l23.12,23.94l24.16,24.17l5.67,0.51l0.48-0.92
		c-18.69-21.72-36.14-43.71-51.35-66.13c-20.81-30.89-46.06-56.91-73.79-80.12l-0.33-0.28l-4.55,3.2l-0.4,0.28l0.24,0.44
		L498.57,851.8l0.33,0.46l4.21-2.97l-0.33-0.44l-0.36,0.42c27.69,23.18,52.85,49.11,73.59,79.91c15.24,22.44,32.7,44.48,51.41,66.22
		l0.42-0.37l0.05-0.55l-5.26-0.48l-23.87-23.87l-23.17-23.99c-32.35-25.86-56.69-58.37-76.53-94.61L498.57,851.8l0.33,0.46
		L498.57,851.8"/>
	<path class="st1" d="M507,845.48c24.66,25.42,51.9,48.46,86.33,64.86l42.61,24.57l3.77-5.47c-18.21-13.38-34.48-26.93-50.6-41
		c-25.52-18.45-51.47-34.06-79.05-46.93L507,845.48"/>
	<path class="st2" d="M507,845.48l-0.4,0.39c24.69,25.45,51.97,48.53,86.49,64.97l43,24.82l4.06-5.9l0.31-0.44l-0.43-0.32
		c-18.19-13.38-34.45-26.91-50.55-40.98c-25.59-18.5-51.57-34.13-79.19-47.02l-0.4-0.19l-3.33,4.31l-0.28,0.39l0.33,0.35L507,845.48
		l0.44,0.34l3.05-3.96l-0.44-0.33l-0.24,0.49c27.55,12.85,53.47,28.44,78.96,46.87c16.08,14.05,32.38,27.6,50.59,41.01l0.33-0.46
		l-0.46-0.32l-3.49,5.05l-42.15-24.33c-34.39-16.37-61.57-39.36-86.21-64.76L507,845.48l0.44,0.34L507,845.48"/>
	<path class="st1" d="M513.31,837.07c31.4,19.03,64.51,34.76,101.49,43.37l47.97,13.04l4.02-5.32
		c-18.61-7.16-35.9-15.19-52.42-23.73c-32.59-14.61-65.67-24.4-98.96-32L513.31,837.07"/>
	<path class="st2" d="M513.31,837.07l-0.28,0.47c31.42,19.05,64.6,34.82,101.64,43.42l48.33,13.15l4.24-5.61l0.46-0.58l-0.7-0.26
		c-18.6-7.15-35.86-15.19-52.37-23.71c-32.66-14.63-65.78-24.45-99.09-32.05l-0.44-0.11l-2.29,5.05l-0.2,0.46l0.42,0.25
		L513.31,837.07l0.51,0.23l2.1-4.63l-0.5-0.23l-0.12,0.55c33.26,7.59,66.3,17.39,98.85,31.97c16.5,8.52,33.81,16.58,52.45,23.75
		l0.19-0.53l-0.44-0.33l-3.79,5.02l-47.62-12.96c-36.91-8.57-69.98-24.29-101.34-43.3L513.31,837.07l0.51,0.23L513.31,837.07"/>
	<path class="st1" d="M516.69,827.39c36.59,12.29,76.09,18.78,115.38,18.94l59.37,2.94l3.36-4.63c-25.56-3.92-50.63-8.77-75.46-14.1
		c-30.02-6-65.29-7.78-102.25-8.2L516.69,827.39"/>
	<path class="st2" d="M516.69,827.39l-0.18,0.53c36.65,12.3,76.21,18.82,115.56,18.96l59.64,2.96l3.55-4.88l0.53-0.74l-0.9-0.14
		c-25.54-3.91-50.61-8.75-75.43-14.06c-30.09-6.02-65.38-7.82-102.35-8.22l-0.53-0.02l-0.44,5.58l-0.04,0.42l0.4,0.14L516.69,827.39
		l0.55,0.05l0.41-5.05l-0.56-0.05l-0.01,0.56c36.95,0.4,72.19,2.2,102.15,8.18c24.84,5.33,49.91,10.17,75.48,14.1l0.1-0.55
		l-0.45-0.33l-3.19,4.4l-59.06-2.94c-39.26-0.14-78.71-6.64-115.22-18.91L516.69,827.39l0.55,0.05L516.69,827.39"/>
	<path class="st1" d="M517.09,817.71c39.8,2.54,79.61-0.19,119.4-8.78l90.75-15.65l2.94-2.96c-34.96,2.96-69.92,5.21-104.85,6.76
		c-37.14,1.2-73.39,6-108.44,15.54L517.09,817.71"/>
	<path class="st2" d="M517.09,817.71l-0.04,0.55c9.47,0.62,18.92,0.91,28.38,0.91c30.39,0,60.79-3.15,91.17-9.7l90.9-15.68
		l3.05-3.08l-0.44-0.93c-34.95,2.94-69.9,5.19-104.82,6.74c-37.17,1.2-73.46,6-108.56,15.58l-0.43,0.11l0.23,5.54l0.02,0.49
		l0.5,0.02L517.09,817.71l0.56-0.02l-0.22-5.09l-0.55,0.02l0.14,0.55c35.01-9.54,71.21-14.35,108.32-15.54
		c34.94-1.55,69.91-3.8,104.87-6.76l-0.04-0.55l-0.4-0.39l-2.81,2.82l-90.57,15.63c-30.34,6.55-60.64,9.68-90.96,9.68
		c-9.44,0-18.87-0.3-28.3-0.92L517.09,817.71l0.56-0.02L517.09,817.71"/>
	<path class="st1" d="M514.99,808.03c44.54-7.29,87.25-20.86,127.62-42.72l107.35-44.9C708,734.71,666,748.65,624.05,760.84
		c-38.3,8.52-75.15,22.88-110.63,42.56L514.99,808.03"/>
	<path class="st2" d="M514.99,808.03l0.09,0.55c44.6-7.3,87.38-20.88,127.78-42.77l107.3-44.89l-0.4-1.04
		c-41.95,14.31-83.92,28.25-125.86,40.43c-38.32,8.52-75.22,22.9-110.75,42.6l-0.4,0.23l1.71,5.07l0.16,0.44l0.47-0.07
		L514.99,808.03l0.52-0.18l-1.57-4.65l-0.52,0.19l0.26,0.48c35.44-19.64,72.25-33.99,110.5-42.49c42-12.2,83.99-26.16,125.94-40.45
		l-0.18-0.53l-0.22-0.51l-107.35,44.9c-40.34,21.86-82.99,35.4-127.48,42.69L514.99,808.03l0.52-0.18L514.99,808.03"/>
	<path class="st1" d="M507,797.48l3.38,1.27c33.16-13.66,64.04-32.63,93.04-56.03c34.02-27.07,70.56-54.16,107.39-81.27
		l-72.91,44.99L507,797.48"/>
	<path class="st2" d="M507,797.48l-0.2,0.51l3.38,1.29l0.21,0.07l0.19-0.09c33.22-13.69,64.15-32.69,93.19-56.1
		c34.01-27.07,70.54-54.16,107.37-81.25l-0.62-0.93l-72.92,44.99l-131.8,91.65l0.99,0.37L507,797.48l0.31,0.46l130.92-91.04
		l72.88-44.97l-0.29-0.48l-0.33-0.44c-36.84,27.11-73.38,54.2-107.41,81.27c-28.97,23.38-59.81,42.32-92.92,55.96l0.22,0.51
		l0.19-0.51l-3.38-1.27L507,797.48l0.31,0.46L507,797.48"/>
</g>
</svg>
