<?xml version="1.0" encoding="utf-8"?>
<!-- Generator: Adobe Illustrator 23.0.2, SVG Export Plug-In . SVG Version: 6.00 Build 0)  -->
<svg version="1.1" id="Layer_1" xmlns="http://www.w3.org/2000/svg" xmlns:xlink="http://www.w3.org/1999/xlink" x="0px" y="0px"
	 viewBox="0 0 841.89 595.28" style="enable-background:new 0 0 841.89 595.28;" xml:space="preserve">
<style type="text/css">
	.st0{fill:#00A3C9;}
	.st1{fill-rule:evenodd;clip-rule:evenodd;fill:#FFFFFF;}
</style>
<g>
	<rect x="123.09" y="128.49" class="st0" width="574.47" height="338.3"/>
	<g>
		<polygon class="st1" points="169.59,232.64 169.59,182.53 169.59,181.96 170.16,181.96 639.64,181.96 640.2,181.96 640.2,182.53 
			640.2,232.64 640.2,233.2 639.64,233.2 170.16,233.2 169.59,233.2 169.59,232.64 		"/>
		<polygon class="st1" points="169.6,408.18 169.6,358.28 169.6,357.72 170.17,357.72 639.65,357.72 640.21,357.72 640.21,358.28 
			640.21,408.18 640.21,408.75 639.65,408.75 170.17,408.75 169.6,408.75 169.6,408.18 		"/>
		<path class="st1" d="M639.3,283.52c-2.65-3.53-6.69-5.47-11.36-5.47c-8.74,0-16.06,5.02-24.47,16.79
			c-7.16,10.02-16.07,22.48-22.6,22.48c-1.57,0-2.73-0.52-3.56-1.58c-2.01-2.58-2-8.28,0.05-16.49c2.32-9.3,6.77-15.79,10.83-15.79
			c2.92,0,4,1.64,4.39,2.65c-1.2-0.09-2.53,0.29-3.58,1.07c-1.4,1.03-2.17,2.63-2.17,4.51c0,1.68,0.59,3.2,1.65,4.26
			c1.03,1.03,2.43,1.58,4.03,1.58c4.07,0,6.92-3.39,6.92-8.25c0-3.09-1.16-6.02-3.17-8.03c-2.21-2.21-5.34-3.34-9.3-3.34
			c-9.71,0-18.25,8.31-22.48,13.26c-4.75,5.56-10.18,11.11-12.85,13.78c2.58-8.6,2.02-16.64-1.63-21.83
			c-2.33-3.31-5.78-5.13-9.72-5.13c-5.99,0-9.98,2.7-12.01,4.55l1-3.73h-20.46l-1.23,5h5.71c-2.65,8.67-9.91,16.66-13.37,20.11
			c0.43-1.37,0.88-3.31,1.08-5.85c0.52-6.44-1.14-12.26-4.57-15.98c-2.48-2.69-5.67-4.1-9.25-4.1c-10.23,0-19.11,6.2-26.4,18.44
			l-2.2,3.79c-4.72,8.23-9.59,16.75-17.5,16.75c-2.17,0-3.92-0.86-5.21-2.55c-3.26-4.3-3.43-13.99-0.43-24.7
			c3.78-13.49,11.89-27.16,20.06-27.16c1.38,0,2.52,0.53,3.48,1.62c3.14,3.54,3.3,12.04,2.89,15.38l-0.08,0.64h5.96l6.24-22.65
			h-5.69l-0.17,0.23l-2.33,3.19c-1.32-1.58-5.47-5.45-14.38-5.45c-10.15,0-27.98,10.89-34.01,34.27
			c-2.92,11.33-1.65,21.28,3.59,28.03c3.73,4.82,9.24,7.58,15.11,7.58c9.93,0,18.79-7.55,22.56-13.5c0.58,4.07,3.19,13.5,14.82,13.5
			c10.43,0,22.62-7.9,35.35-22.86l-9.85,38.59h14.74l4.85-19.89c1.22,1.57,4.05,4.16,9.62,4.16c7.87,0,20.95-9.02,32.27-22.15
			c-1.56,6.55-0.67,12.45,2.56,16.72c2.59,3.44,6.44,5.41,10.55,5.41c13.67,0,23.24-11.43,26.47-15.93
			c-0.07,4.17,1.28,8.1,3.85,11.02c2.78,3.17,6.79,4.91,11.29,4.91c11.99,0,22.45-8.35,26.03-20.79
			C643.7,295.95,643.02,288.47,639.3,283.52L639.3,283.52z M489.29,302.8c-1.98,7.73-6.47,16.76-12.58,16.76
			c-1.4,0-2.42-0.45-3.12-1.39c-1.92-2.55-1.52-8.7,1.21-18.27c3.07-10.78,6.74-16.02,11.22-16.02c1.14,0,2.04,0.46,2.78,1.4
			C491,288.12,491.21,295.33,489.29,302.8L489.29,302.8z M537.09,303.06c-2.36,10.05-6.37,15.81-11.02,15.81
			c-3.63,0-5.28-3.42-5.6-4.18c0.34-1.45,2.71-11.66,3.9-16.37c1.86-7.35,6.12-12.89,9.9-12.89c1.15,0,2.08,0.44,2.77,1.31
			C538.4,288.46,539.52,292.69,537.09,303.06L537.09,303.06z M631.18,302.8c-1.98,7.73-6.47,16.76-12.58,16.76
			c-1.4,0-2.42-0.45-3.12-1.39c-1.93-2.55-1.52-8.7,1.21-18.27c3.07-10.78,6.74-16.02,11.22-16.02c1.14,0,2.04,0.46,2.78,1.4
			C632.89,288.12,633.1,295.33,631.18,302.8L631.18,302.8z"/>
		<path class="st1" d="M394.61,293.45c1.01,1.01,2.37,1.55,3.92,1.55c2.8,0,5.79-1.75,5.79-6.68c0-2.45-0.92-4.66-2.65-6.4
			c-2.53-2.53-6.63-3.92-11.55-3.92c-9.85,0-16.67,4.02-19.2,11.31c-1.88,5.42,1.01,11.21,8.15,16.29l0.97,0.69
			c4.15,2.93,6.65,4.7,6.02,8.46c-0.5,2.99-3.73,5.13-7.69,5.1c-6.05-0.05-7.04-3.19-7.21-4.27c1.07-0.48,3.79-2.04,3.79-5.42
			c0-1.61-0.49-2.92-1.47-3.89c-1.5-1.5-3.58-1.66-4.41-1.66c-1.94,0-5.29,0.69-5.83,5.3c-0.08,0.65-0.01,1.39,0.04,1.76
			c-0.45,0.66-2.36,3.17-5.47,4.16c-0.71,0.23-1.75,0.14-2.48-0.57c-0.99-0.95-1.16-2.78-0.5-5.14c0.67-2.39,7.84-31.4,7.84-31.4
			H348.1l-1.11,3.97c-1.12-1.82-3.9-4.68-10.29-4.68c-9.79,0-18.06,9.58-22.16,17.79c-3.45,6.89-9.86,19.72-14.84,19.72
			c-0.53,0-0.93-0.18-1.22-0.56c-0.53-0.7-1.19-2.76,0.4-8.72c1.31-4.89,11.73-47.63,11.73-47.63h-24.86l-1.34,5.86h9.33
			l-6.44,25.78c-4.75,18.65-13.04,25.27-18.7,25.27c-1.19,0-2.02-0.33-2.56-1c-1.52-1.9-0.51-6.39,0.23-9.67
			c1.03-4.59,4.31-17.8,4.92-20.26h10.3l1.5-5.96h-10.23l3.55-14.49l-5.59,0l-0.17,0.25c-7.35,11.04-10.65,14.61-21.64,14.61h-0.45
			l-1.37,5.58h8.8c-0.38,1.84-1.4,6.74-1.4,6.72c-4.86,18.32-14.15,25.92-18.05,25.92c-1.92,0-2.98-0.32-3.56-1.08
			c-0.96-1.25-0.84-4,0.39-8.65c2.22-8.4,11.63-42.04,12.77-46.1h9.38c0,0,1.72-5.64,1.72-5.64l-19.99-0.05
			c-7.19,0-15.66,0.61-23.93,5.11c-10.36,5.64-17.85,16.2-22.27,31.41c-0.03,0.11-2.76,10.88-5.2,18.9
			c-2.57,8.46-9.36,9.37-12.16,9.37c-1.74,0-3.6-0.85-5.1-2.32l-0.97-0.95v7.61l0.44,0.1c2.6,0.62,5.7,0.93,9.21,0.93
			c9.62,0,18.16-6.95,22.55-12.91c3.58-4.85,4.76-9.17,6.55-15.72l0.4-1.45h14.46c-0.61,2.07-2.43,8.24-4.02,14.08
			c-1.36,5.01-1.01,8.9,1.04,11.59c2.02,2.64,5.64,3.98,10.77,3.98c5.2,0,14.59-1.28,20.97-9.43c0.16,1.99,0.77,4.58,2.68,6.56
			c1.82,1.88,4.47,2.84,7.87,2.84c7.9,0,16.83-5.17,21.17-10.45c0.1,2.01,0.62,5.31,2.8,7.69c1.68,1.83,4.03,2.76,6.97,2.76
			c8.81,0,16.89-7.05,20.56-12.79c0.63,3.82,3.24,12.79,13.86,12.79c6.79,0,11.82-4.29,14.57-7.4c0.58,2.37,2.53,7.4,8.69,7.4
			c6.5,0,13.01-4.36,15.99-7.76c2.77,5.36,5.89,7.76,16.48,7.76c10.05,0,18.35-6.85,19.81-13.24c1.57-6.93-2.24-9.74-8.56-14.39
			l-0.76-0.56l-1.31-0.95c-3.12-2.25-5.82-4.19-5.82-7.52c0-3.62,2.93-5.24,5.84-5.24c2.41,0,3.73,0.95,4.3,1.49
			c-0.72,0.69-2.01,2.21-2.01,4.43C393.01,290.99,393.58,292.42,394.61,293.45L394.61,293.45z M222.78,289.7h-14.63
			c5.68-19.28,12.44-27.79,22.42-28.2L222.78,289.7L222.78,289.7z M342.35,300.24c-2.88,11.05-6.3,15.97-11.09,15.97
			c-1.07,0-1.91-0.42-2.57-1.29c-2.09-2.74-2.01-9.46,0.21-17.53c3.11-11.31,7.04-12.84,10.48-12.84c1.05,0,1.94,0.46,2.64,1.37
			C343.94,288.43,344.07,293.65,342.35,300.24L342.35,300.24z"/>
	</g>
</g>
</svg>
