<?xml version="1.0" encoding="utf-8"?>
<!-- Generator: Adobe Illustrator 22.0.1, SVG Export Plug-In . SVG Version: 6.00 Build 0)  -->
<svg version="1.1" id="Layer_1" xmlns="http://www.w3.org/2000/svg" xmlns:xlink="http://www.w3.org/1999/xlink" x="0px" y="0px"
	 viewBox="0 0 585.7 403" style="enable-background:new 0 0 585.7 403;" xml:space="preserve">
<style type="text/css">
	.st0{fill:#FFFFFF;}
</style>
<g>
	<g>
		<path class="st0" d="M254.6,237.9l-25-69.5c-0.3-1-0.8-2.2-0.8-3.3c0-3,2.5-5.9,6.2-5.9c3.2,0,5.3,2.1,6.2,5.1l20.7,59.9l20.8-60
			c0.9-2.8,2.9-4.9,6-4.9h0.6c3.3,0,5.4,2.1,6.4,4.9l20.7,60l21-60.2c0.8-2.5,2.5-4.8,5.9-4.8c3.5,0,6,2.7,6,5.7
			c0,1.1-0.5,2.4-0.8,3.3l-25.1,69.6c-1.3,3.6-3.8,5.5-6.7,5.5h-0.5c-3.2,0-5.6-1.9-6.7-5.5l-20.5-59l-20.7,59
			c-1.1,3.6-3.5,5.5-6.7,5.5h-0.3C258.5,243.5,255.9,241.6,254.6,237.9"/>
		<path class="st0" d="M436.5,165.3c0-3.4,2.7-6.2,6-6.2c3.5,0,6.2,2.7,6.2,6.2v14.1c6-13.7,19.5-20.2,28.3-20.2
			c3.7,0,6.1,2.7,6.1,6.2c0,3.3-2.2,5.7-5.4,6.2c-15.9,1.9-29,13.9-29,37.6v27.9c0,3.3-2.5,6.2-6,6.2c-3.5,0-6.2-2.7-6.2-6.2V165.3"
			/>
		<path class="st0" d="M522.5,244.1c-22.2,0-40.3-17.2-40.3-42.4v-0.3c0-23.5,16.4-42.4,38.7-42.4c23.9,0,37.5,19.7,37.5,41.3
			c0,3.3-2.7,5.7-5.6,5.7h-58.3c1.7,17.6,14,27.6,28.4,27.6c10,0,17.3-3.9,23.2-9.5c0.9-0.8,2-1.4,3.4-1.4c3,0,5.3,2.4,5.3,5.2
			c0,1.4-0.6,2.8-1.9,3.9C545.3,239.2,536.3,244.1,522.5,244.1 M546.4,197c-1.2-14.8-9.7-27.7-25.8-27.7c-14,0-24.7,11.8-26.2,27.7
			H546.4z"/>
		<path class="st0" d="M349.6,218.6v-0.3c0-17.3,14.3-26.5,35.1-26.5c10.5,0,17.9,1.4,25.3,3.5v-2.9c0-14.8-9.1-22.4-24.5-22.4
			c-8.3,0-13.1,1.1-19.1,3.7c-0.8,0.3-1.6,0.5-2.2,0.5c-2.9,0-5.4-2.4-5.4-5.2c0-2.5,1.1-4.1,3.3-5.1c8.1-3.5,14.2-4.7,24.7-4.7
			c11.6,0,20.5,3,26.5,9c5.6,5.6,8.4,13.5,8.4,24v45.3c0,3.5-2.5,6-5.9,6c-3.5,0-5.8-2.5-5.8-5.7V230c-5.7,7.5-15.3,14.1-29.7,14.1
			C365,244.2,349.6,235.4,349.6,218.6 M410.1,212.3v-7.9c-6-1.7-14.1-3.5-24.1-3.5c-15.4,0-24,6.7-24,17v0.3
			c0,10.3,9.5,16.4,20.6,16.4C397.7,234.5,410.1,225.3,410.1,212.3"/>
		<path class="st0" d="M32.2,164.4c-2.7-5.9-9.3-8.6-15.5-5.8c-6.2,2.8-8.5,9.6-5.7,15.5l26,56.6c4.1,8.9,8.4,13.5,16.5,13.5
			c8.7,0,12.4-5.1,16.5-13.5c0,0,22.7-49.5,23-50c0.2-0.5,1-2.1,3.3-2.1c2,0,3.6,1.6,3.6,3.7v48.4c0,7.5,4.1,13.6,12.1,13.6
			c8,0,12.3-6.1,12.3-13.6v-39.6c0-7.6,5.5-12.6,12.9-12.6c7.5,0,12.4,5.1,12.4,12.6v39.6c0,7.5,4.1,13.6,12.1,13.6
			c8,0,12.3-6.1,12.3-13.6v-39.6c0-7.6,5.5-12.6,12.9-12.6c7.4,0,12.4,5.1,12.4,12.6v39.6c0,7.5,4.1,13.6,12.1,13.6
			c7.9,0,12.3-6.1,12.3-13.6v-45.1c0-16.6-13.3-28.2-29.3-28.2c-16,0-26,11.1-26,11.1c-5.3-6.9-12.7-11.1-25.1-11.1
			c-13.1,0-24.6,11.1-24.6,11.1c-5.3-6.9-14.4-11.1-21.9-11.1c-11.6,0-20.9,5.1-26.5,18l-16.6,39.2L32.2,164.4"/>
		<path class="st0" d="M559.4,169.3L559.4,169.3c0-5.6,4.5-10.3,10.1-10.3c5.7,0,10.2,4.6,10.2,10.2v0c0,5.6-4.5,10.2-10.2,10.2
			C563.8,179.4,559.4,174.8,559.4,169.3 M577.8,169.2L577.8,169.2c0-4.6-3.5-8.3-8.2-8.3c-4.7,0-8.2,3.8-8.2,8.3v0.1
			c0,4.5,3.5,8.3,8.2,8.3C574.2,177.6,577.8,173.8,577.8,169.2"/>
		<path class="st0" d="M565.7,165.2c0-0.6,0.5-1.1,1.1-1.1h3.4c1.3,0,2.3,0.4,2.9,1c0.6,0.5,0.9,1.3,0.9,2.2v0c0,1.5-0.8,2.5-2,3
			l1.5,1.8c0.2,0.3,0.4,0.5,0.4,0.8c0,0.6-0.5,1-1,1c-0.5,0-0.8-0.2-1.1-0.6l-2.1-2.7h-1.7v2.1c0,0.6-0.5,1.1-1.1,1.1
			c-0.6,0-1.1-0.5-1.1-1.1V165.2z M570,168.9c1.1,0,1.6-0.6,1.6-1.4v0c0-0.9-0.6-1.4-1.7-1.4h-2.2v2.8H570z"/>
	</g>
</g>
</svg>
