<svg id="Layer_1" data-name="Layer 1" xmlns="http://www.w3.org/2000/svg" viewBox="0 0 512.65 199.16"><defs><style>.cls-1{fill:#fff;}</style></defs><title>PTC white</title><g id="_Group_" data-name="&lt;Group&gt;"><g id="_Group_2" data-name="&lt;Group&gt;"><polygon id="_Path_" data-name="&lt;Path&gt;" class="cls-1" points="86.58 0 0.18 49.91 0.18 94.02 86.58 43.77 135.17 71.64 125.5 77.26 86.58 54.88 52.73 74.46 130.09 119.26 172.98 94.15 172.98 49.91 86.58 0"/><path class="cls-1" d="M42.08,219.25c3.51-1.86,7.08-3.61,10.51-5.6,9.9-5.74,19.73-11.58,29.6-17.36.81-.48,1.7-.82,3.07-1.47L163.31,240l-34.64,20.06-39-22.28-8.75,5,47.68,27.39L215,220v45.17c-7,4.05-14.15,8.29-21.38,12.46q-31.22,18-62.45,35.92a4,4,0,0,0-.79.8H126.9Q106.45,302.47,86,290.55q-22-12.75-43.94-25.45Zm86.51,86.55L207,260.6V234l-78.41,45.52-63.8-36.66L89.59,228.5l39.07,22.29L147.19,240,85,204,49.47,224.83v35.36Z" transform="translate(-42.08 -115.23)"/><g id="_Group_3" data-name="&lt;Group&gt;"><path id="_Compound_Path_" data-name="&lt;Compound Path&gt;" class="cls-1" d="M301.45,180.86q11.67-17.1,34.8-17.1,21,0,34,14.58,13,14.39,13,35.57t-13,35.57q-13,14.57-35,14.57t-33.83-17.29V301H286.88V165.31h14.57ZM334.3,177q-15.74,0-24.88,10.89-8.75,10.3-8.75,26T309.42,240q9.13,10.88,24.88,10.88,15.56,0,25.27-10.88,9.14-10.31,9.14-26.05t-9.14-26Q349.85,177,334.3,177" transform="translate(-42.08 -115.23)"/><polygon id="_Path_2" data-name="&lt;Path&gt;" class="cls-1" points="371.53 147.27 371.53 62.91 351.7 62.91 351.7 50.09 371.53 50.09 371.53 15.29 386.11 15.29 386.11 50.09 408.46 50.09 408.46 62.91 386.11 62.91 386.11 147.27 371.53 147.27"/><path id="_Path_3" data-name="&lt;Path&gt;" class="cls-1" d="M512,250.84a27.28,27.28,0,0,0,16.52-5.25A30.21,30.21,0,0,0,539,232h15.74a44.27,44.27,0,0,1-16.32,23.13Q526,264,508.85,264.06q-21.37,0-34.79-14.58-13-14.19-13-35.57t13-35.57q13.41-14.58,34.79-14.58,17.1,0,29.55,8.94a44.27,44.27,0,0,1,16.32,23.13H539a30.18,30.18,0,0,0-10.5-13.6A27.22,27.22,0,0,0,512,177a38.7,38.7,0,0,0-15.84,2.92,31.73,31.73,0,0,0-11,8q-9.52,10.5-9.52,26t9.52,26q9.71,10.89,26.82,10.89" transform="translate(-42.08 -115.23)"/></g></g></g></svg>