<?xml version="1.0" encoding="utf-8"?>
<!-- Generator: Adobe Illustrator 22.0.1, SVG Export Plug-In . SVG Version: 6.00 Build 0)  -->
<svg version="1.1" id="Layer_1" xmlns="http://www.w3.org/2000/svg" xmlns:xlink="http://www.w3.org/1999/xlink" x="0px" y="0px"
	 viewBox="0 0 585.7 403" style="enable-background:new 0 0 585.7 403;" xml:space="preserve">
<style type="text/css">
	.st0{fill:#FFFFFF;}
	.st1{fill:#E31E24;}
</style>
<g>
	<path class="st0" d="M466.2,214.2c0-1,0-1.6,0-2.3c0.9-0.4,1.7-0.8,2.6-1.2c1.1-0.6,1.7-1.6,1.8-2.8c0-0.7,0-1.5,0-2.2
		c0-21.5,0-43.1,0-64.6c0-0.4,0-0.9,0-1.3c0.1-2-0.8-3.3-2.6-4.1c-1.9-0.9-3.4-0.3-4.9,0.8c-0.8,0.6-1.2,1.4-1.3,2.4
		c0,0.8,0,1.6,0,2.4c0,14.3,0.1,28.6-0.1,42.9c0,4.9-0.6,9.7-2.3,14.4c-1.5,4.2-4.1,7.5-7.7,10.1c-4.3,3.1-9.2,4.6-14.3,5.7
		c-8.2,1.8-16.6,1.7-24.9,1.2c-7.1-0.4-14.1-2-20.6-5.3c-6.3-3.3-9.9-8.5-11.4-15.2c-0.6-2.6-0.8-5.2-1-7.8
		c-0.5-5.9-0.2-11.7-0.3-17.6c-0.1-9.4,0-18.8,0-28.1c0-0.7,0-1.5,0-2.2c0-1.6-0.7-2.8-2.2-3.5c-0.7-0.3-1.3-0.6-2.1-0.9
		c0-0.6,0-1.3,0-2c1.6-0.4,26.2-0.5,28.7-0.1c0.1,0.6,0.1,1.3,0.2,1.9c-0.7,0.3-1.2,0.6-1.8,0.8c-2,0.7-2.8,2.2-3,4.2
		c0,0.4,0,0.7,0,1.1c0,13.4,0,26.8,0,40.2c0,2.5,0.4,4.9,0.9,7.4c0.7,3.8,3,6.6,6.4,8.5c3,1.7,6.2,2.5,9.5,3c2.5,0.3,5,0.4,7.4,0.3
		c3.9-0.2,7.8-0.8,11.5-2.4c5.5-2.4,8.1-6.7,8.6-12.6c0.7-7.7,0.3-15.4,0.4-23c0.1-6.7,0-13.5,0-20.2c0-0.4,0-0.7,0-1.1
		c0.1-2.7-1-4.6-3.7-5.5c-0.3-0.1-0.5-0.2-0.9-0.3c0-0.7,0-1.4,0-2.3c1-0.1,1.8-0.2,2.7-0.2c13,0,25.9,0,38.9,0
		c19.1,0,38.1,0,57.2,0c0.6,0,1.2,0,1.8,0c3.4,0,5.3-1.9,5.3-5.3c0-6.4,0-12.7,0-19.1c0-0.8,0-1.6,0-2.3c1.1-0.7,2-0.7,3-0.1
		c0,0.6,0.1,1.2,0.1,1.9c0,7.6,0,15.2,0,22.9c0,0.8,0.2,1.5-0.5,2.2c-0.4,0.4-0.3,1.2-0.3,1.9c0,5.1,0,10.1,0,15.2
		c0,0.7,0,1.5,0,2.4c-0.7,0.1-1.3,0.2-2,0.3c-0.4-0.9-0.8-1.7-1.2-2.4c-0.6-1.2-1.5-1.9-2.9-2.1c-1.2-0.1-2.5-0.3-3.7-0.3
		c-14.7,0-29.5,0-44.2,0c-0.8,0-1.6,0-2.4,0c-0.5,1.5-0.6,14.2-0.2,17.4c0.5,0,1.1,0.1,1.7,0.1c9.5,0,18.9,0,28.4,0
		c0.4,0,0.9,0,1.3,0c1.5,0,2.6-0.8,3.3-2.1c0.3-0.7,0.6-1.3,1-2.2c0.5,0,1.1-0.1,1.6-0.1c0.6,0.6,0.6,21.3,0.2,23.5
		c-1.6,0.2-1.7,0.2-2.2-1c-0.9-2.7-2.8-3.6-5.6-3.6c-9.3,0.1-18.6,0-27.9,0c-0.6,0-1.1,0-1.8,0c0,6.4,0,12.7,0,19.2
		c0.6,0,1.2,0.1,1.8,0.1c16.4,0,32.8,0,49.2,0c2.5,0,4-0.4,5.1-3.7c0.1-0.2,0.2-0.4,0.4-0.7c0.5,0,1.2-0.1,1.9-0.1
		c0.1,0.4,0.3,0.6,0.3,0.9c0,3.7,0,7.5,0,11.2c0,3.2,0,6.4,0,9.7c0,0.7,0,1.4,0,2.3c-0.8,0.1-1.4,0.1-1.9,0.1
		c-0.2-0.2-0.4-0.3-0.4-0.5c-1-3.1-3.1-4.1-6.3-4.1c-23.9,0.1-47.8,0.1-71.7,0.1C468.2,214.2,467.3,214.2,466.2,214.2z"/>
	<path class="st0" d="M179.9,161c0,1,0,1.7,0,2.3c0,14.1,0,28.1,0,42.2c0,0.1,0,0.1,0,0.2c-0.2,2.7,0.8,4.6,3.4,5.7
		c1.5,0.6,1.4,0.7,1.1,2.3c0,0.1-0.1,0.1-0.1,0.2c-1.6,0.4-24.3,0.5-26.8,0.1c-0.1-0.2-0.2-0.5-0.2-0.8c0-0.4,0-0.9,0.1-1.2
		c0.9-0.5,1.8-0.9,2.6-1.4c1.1-0.7,1.7-1.8,1.8-3.1c0-0.7,0-1.3,0-2c0-21.5,0-42.9,0-64.4c0-0.3,0-0.6,0-0.9c0.2-2.5-1-4-3.2-4.9
		c-0.2-0.1-0.4-0.1-0.6-0.2c-0.1-0.1-0.2-0.1-0.5-0.3c0-0.6,0-1.3,0-2c1.6-0.4,28.5-0.5,31.1-0.1c0,0.3,0.1,0.6,0.1,1s0,0.7-0.1,1.1
		c-0.5,0.2-1,0.4-1.4,0.6c-1.6,0.8-2,2-1.3,3.6c0.2,0.5,0.6,1,1,1.4c0.4,0.5,0.9,1,1.4,1.4c13.7,13.7,27.5,27.4,41.2,41.2
		c0.4,0.4,0.6,0.9,0.9,1.3c0.2-0.1,0.3-0.2,0.5-0.3c0-0.5,0.1-1.1,0.1-1.6c0-13.9,0-27.8,0-41.8c0-0.5,0-1,0-1.5
		c0-1.5-0.7-2.7-2.1-3.3c-0.7-0.3-1.4-0.7-2.2-1c0-0.7,0-1.4,0-2.1c2.3-0.4,25.2-0.4,27,0.1c0,0.5,0.1,1.2,0.2,1.8
		c-0.7,0.3-1.1,0.7-1.7,0.8c-2.1,0.7-2.9,2.3-3.1,4.3c0,0.5,0,1,0,1.5c0,21.3,0,42.6,0,64c0,0.4,0,0.7,0,1.1c0,2.2,0.8,3.8,2.9,4.7
		c0.5,0.2,1,0.5,1.7,0.8c0,0.6,0.1,1.2,0.1,1.7c-0.3,0.2-0.5,0.4-0.7,0.4c-0.6,0.1-1.2,0.1-1.7,0.1c-8.1,0-16.3,0-24.4,0
		c-0.8,0-1.6-0.1-2.5-0.2c0-0.8-0.1-1.5-0.1-2.1c0.6-0.3,1.2-0.5,1.7-0.7c1.5-0.8,1.8-2,1-3.5c-0.4-0.6-0.9-1.2-1.4-1.7
		c-3.9-3.9-7.9-7.9-11.8-11.8c-7.9-7.9-15.8-15.7-23.7-23.6C186.8,167.5,183.5,164.4,179.9,161z"/>
	<path class="st1" d="M347.5,131c-3.8,4.8-7.5,9.3-11,13.8c-3-0.2-6-0.5-9-0.4c-11.2,0.1-20.6,7.3-24.1,17.8c-0.7,2.1-1,4.4-1.3,6.6
		c-0.6,4-0.1,7.9,1,11.7c2.7,9.5,8.8,15.7,18.3,18.3c6.7,1.8,13.3,1.3,19.7-1.4c4.2-1.8,7.7-4.7,10.3-8.5c3.3-4.6,4.9-9.7,4.9-15.4
		c0-3.1,0.1-6.3-0.8-9.3c-0.7-2.5-1.6-5-3.1-7.2c-0.2-0.4-0.4-0.8-0.6-1.3c4.4-4.4,9.3-8.3,13-13.4c1.5,1.1,2.5,2.5,3.5,3.8
		c3.5,4.6,5.6,9.9,6.9,15.5c1.2,5.1,1.3,10.3,0.8,15.5c-0.7,8.1-3.3,15.5-8.5,21.9c-5.8,7.3-13.1,12.1-22,14.7
		c-4.7,1.4-9.5,2.2-14.4,2.1c-2.1,0-4.3,0-6.4,0c-7.9-0.3-15.2-2.5-22-6.4c-6.8-4-12.1-9.5-15.8-16.4c-1.7-3.2-2.8-6.6-3.6-10.1
		c-0.6-2.6-1-5.3-0.9-8c0.1-3.6-0.1-7.1,0.4-10.7c1-6.4,3.2-12.3,7-17.5c5.7-7.8,13.2-13.1,22.5-15.9c3.7-1.1,7.5-1.8,11.3-2.2
		c2.9-0.3,5.7-0.4,8.5-0.3c4.9,0.3,9.9,0.8,14.6,2.5C346.9,130.7,347.1,130.9,347.5,131z"/>
	<path class="st0" d="M128.9,134.8c0-0.7,0-1.4,0-2c1.7-0.4,24.6-0.5,27-0.1c0.1,0.6,0.1,1.3,0.2,1.9c-0.7,0.3-1.2,0.6-1.8,0.8
		c-2,0.7-2.8,2.2-3,4.2c0,0.6,0,1.2,0,1.8c0,14.2,0,28.4,0,42.6c0,4.2-0.5,8.4-1.7,12.5c-1.6,5.9-5.1,10.3-10.3,13.3
		c-4.7,2.6-9.8,4-15.1,4.9c-7,1.1-14,1-21,0.7c-7.2-0.3-14.3-1.8-20.9-5c-7.1-3.4-11-9.1-12.4-16.7c-0.6-3.5-0.9-6.9-0.9-10.4
		c0-13.9,0-27.8,0-41.8c0-0.6,0-1.2,0-1.8c-0.1-1.9-0.8-3.4-2.6-4.2c-0.7-0.3-1.3-0.6-2.1-1c0-0.6,0.1-1.3,0.1-1.8
		c1.7-0.5,25.9-0.6,28.8-0.2c0,0.7,0.1,1.3,0.1,2.1c-0.8,0.3-1.4,0.6-2.1,0.9c-1.6,0.7-2.4,1.9-2.4,3.6c0,0.2,0,0.4,0,0.7
		c0,14.6,0,29.2,0,43.7c0,2.3,0.4,4.5,1.3,6.6c1.5,3.7,4.4,6.1,8.1,7.6c3.7,1.6,7.6,2.1,11.5,2.2c4,0.2,8-0.2,11.9-1.4
		c3.4-1,6.5-2.6,8.7-5.6c0.8-1.2,1.5-2.5,1.9-3.9c0.7-2.3,1-4.7,1-7.1c0-13.8,0-27.7,0-41.5c0-2.7-0.6-4.5-3.9-5.6
		C129.3,135,129.2,134.9,128.9,134.8z"/>
	<path class="st0" d="M453.9,270c-4.2,0-8.1,0-12.1,0c-0.6-0.6-0.3-1.4-0.3-2.1c0-8.8,0-17.6,0-26.4c0-2.1-0.4-4.2-1.4-6.1
		c-0.7-1.4-1.8-2.3-3.2-2.5c-3.1-0.6-6.1-0.4-8.2,2.3c-0.7,0.9-1.3,2-1.5,3.1c-0.4,1.5-0.5,3.2-0.5,4.8c0,8.3,0,16.7,0,25
		c0,0.6-0.1,1.1-0.1,1.7c-1.8,0.4-9.9,0.4-12.3,0.1c0-0.7-0.1-1.5-0.1-2.3c0-8.8,0-17.6,0-26.4c0-1.3-0.2-2.6-0.4-3.9
		c-0.6-3.2-3.1-4.3-5.4-4.6c-0.7-0.1-1.5,0-2.2,0c-3.7,0.1-5.6,2.3-6.3,5.4c-0.4,1.6-0.5,3.3-0.5,5c0,8.1,0,16.3,0,24.4
		c0,0.8,0,1.6,0,2.3c-1.8,0.4-9.9,0.5-12.1,0.1c-0.4-1.6-0.4-43.6-0.1-46.2c1.6-0.4,9.1-0.5,11.7-0.1c0,1.9,0,3.8,0,5.8
		c3.2-4.9,7.5-7.2,13.3-7.3c5.7-0.1,10,2.2,12.9,7.1c1.4-1.4,2.6-2.8,4-4.1c2.4-2.1,5.2-3,8.5-3c3.1,0,6,0.5,8.7,1.9
		c4.9,2.6,7.5,6.7,7.6,12.2c0.2,8,0.1,16,0.1,23.9C453.9,263.4,453.9,266.6,453.9,270z"/>
	<path class="st0" d="M337.2,289.3c-4.2,0-8.1,0-12.2,0c0-1.7,0-3.3,0-5.1c-1.3,1.3-2.3,2.5-3.6,3.4c-3.8,2.6-8,3.4-12.7,2.8
		c-4.9-0.6-8.6-3-11.7-6.7c-2.1-2.5-3.4-5.5-4.1-8.6c-1.7-7.1-1.9-14.2,0.7-21.1c2.1-5.7,5.8-10,11.8-11.8c4.8-1.5,9.5-1.3,14,1.1
		c1.9,1,3.2,2.7,4.7,4.3c0.2,0.2,0.3,0.4,0.6,0.8c0.1-7.5-0.1-14.8,0.1-22.2c4.1,0,8.1,0,12,0c0.1,0.1,0.1,0.1,0.2,0.2
		c0,0.1,0.1,0.1,0.1,0.2c0,20.5,0.1,41,0.1,61.5C337.4,288.5,337.3,288.8,337.2,289.3z M304.8,266.4c-0.2,2.1,0.2,4.4,1,6.6
		c1,3,2.5,5.7,5.8,6.7c5.8,1.7,11-0.7,12.9-6.6c1.6-5.2,1.3-10.3-0.7-15.4c-1.5-3.7-4.4-5.4-8.2-5.6c-3.8-0.2-6.8,1.3-8.7,4.7
		C305.2,259.7,304.7,262.9,304.8,266.4z"/>
	<path class="st0" d="M284,211.7c0,0.5,0.1,0.9,0.1,1.3c0,0.3-0.1,0.6-0.2,0.9c-0.3,0.1-0.6,0.3-0.8,0.3c-9,0-18,0-27,0
		c-0.3,0-0.5-0.2-0.9-0.4c0-0.6,0-1.3,0-1.8c0.2-0.1,0.3-0.3,0.4-0.3c3.2-0.7,4.1-2.9,4.3-5.8c0-0.5,0-1,0-1.5c0-20.7,0-41.3,0-62
		c0-1.3-0.2-2.6-0.4-3.9c-0.2-1.1-0.8-1.9-1.7-2.4c-0.8-0.4-1.6-0.7-2.5-1.2c0-0.6,0-1.3,0-2c1.6-0.4,26.2-0.5,28.7-0.1
		c0.1,0.6,0.1,1.3,0.2,1.9c-0.8,0.4-1.5,0.8-2.2,1c-1.7,0.8-2.5,2.2-2.6,4c0,0.5,0,1,0,1.5c0,21.3,0,42.7,0,64c0,0.7,0,1.5,0.1,2.2
		C279.8,209.9,281.5,211.1,284,211.7z"/>
	<path class="st0" d="M173.4,238.4c-4.1,0-7.9,0-11.8,0c-0.1-0.3-0.2-0.6-0.2-0.9c1.1-8.2,5.2-13.6,14.2-15.1
		c3.1-0.5,6.3-0.5,9.4-0.3c3.7,0.2,7.3,1.1,10.6,3.2c3.7,2.4,5.4,5.8,5.4,10.1c0.1,8.7,0,17.4,0,26.1c0,1,0.2,2,0.3,3
		c0.1,1.6,0.8,2.8,2.3,3.5c0,0.6-0.1,1.2-0.1,1.8c-4.5,0-8.9,0-13.4,0c-0.4-1.6-0.8-3.2-1.3-5c-0.5,0.4-0.9,0.8-1.4,1.2
		c-5.2,4.8-11.3,6.2-18.1,4.5c-5.1-1.3-9-5.5-9.5-11.2c-0.3-3.6,0.1-7,2-10.1c2.4-3.9,6.2-5.9,10.6-6.7c3.9-0.7,7.9-1.2,11.9-1.8
		c0.4-0.1,0.7-0.2,1.1-0.3c1.6-0.3,2.9-1,3.2-2.8c0.3-2.3-0.5-4-2.5-4.9c-0.9-0.4-1.9-0.6-2.9-0.7c-1.2-0.1-2.5-0.1-3.7,0
		c-2.8,0.1-4.8,1.6-5.6,4.3C173.7,237.2,173.6,237.7,173.4,238.4z M188.7,248c-2,0.5-3.8,1-5.6,1.5c-2,0.5-4,0.8-5.9,1.3
		c-4.5,1.2-5.5,5.2-4.2,8.6c0.6,1.5,1.8,2.5,3.4,2.7c3.1,0.4,6,0,8.6-1.9c2-1.4,3.6-3.3,3.7-5.9C188.8,252.3,188.7,250.2,188.7,248z
		"/>
	<path class="st0" d="M383.6,250.2c-10.3,0-20.6,0-31,0c-1,3,1.4,8.9,5.6,10.3c5.2,1.8,9.8,0.4,12.7-4.5c4,0.1,8.1-0.2,12.4,0.2
		c-0.6,3.4-2.2,6.1-4.3,8.4c-3.3,3.7-7.6,5.7-12.6,6.5c-5.6,0.8-10.9,0.2-16-2.3c-4.3-2.1-7.2-5.6-8.9-10.1
		c-1.8-4.9-2.4-9.9-2.1-15.1c0.3-4.2,1.3-8.2,3.5-11.9c2.8-4.6,6.7-7.6,12-8.9c4.7-1.1,9.4-1.2,14.1,0.1c6.6,1.8,10.8,6.2,13.1,12.5
		c1.7,4.6,2.1,9.4,1.8,14.2C383.9,249.8,383.8,249.9,383.6,250.2z M371.1,241.8c-0.7-6.6-4.4-9.4-9.4-9.4c-4.4,0-8.3,2-9.1,9.4
		C358.7,241.8,364.8,241.8,371.1,241.8z"/>
	<path class="st0" d="M291.4,270.1c-4.4,0-8.8,0-13.1,0c-1-1.5-1.2-3.2-1.2-5.1c-1.7,1.3-3.2,2.8-5,3.7c-6.2,3.4-12.6,3.9-18.9,0.2
		c-3.2-1.9-4.9-4.9-5.4-8.4c-0.6-4.1-0.2-8.1,2.3-11.7c1.8-2.5,4.2-4.1,7-5.1c1.8-0.6,3.8-1,5.7-1.3c3.2-0.5,6.5-0.9,9.7-1.4
		c2.5-0.4,4-1.7,4-3.6c0-1.8-1.2-3.8-2.9-4.5c-0.7-0.3-1.5-0.5-2.3-0.5c-1.2-0.1-2.5-0.1-3.7,0c-3.3,0.1-5.3,1.6-6.2,4.8
		c-0.1,0.3-0.1,0.7-0.2,1c-1.6,0.5-9.7,0.5-12.1,0.1c0.4-3.9,1.4-7.5,4.1-10.6c1.5-1.7,3.2-3,5.3-3.8c3.1-1.2,6.3-1.8,9.6-1.8
		c3.4,0,6.7,0,10,0.9c2.7,0.7,5.2,1.9,7.2,3.9c2.2,2.2,3.4,4.7,3.4,7.8c0,8.1,0,16.1,0,24.2c0,1.9,0.2,3.8,0.4,5.7
		c0.2,1.2,0.5,2.4,1.7,3.2C291.6,268.3,291.5,268.4,291.4,270.1z M276.5,247.8c-1.6,0.5-2.8,1-4.2,1.4c-1.3,0.3-2.7,0.5-4.1,0.8
		c-1.5,0.4-3.1,0.8-4.6,1.3c-2.2,0.7-3.3,2.4-3.6,4.6c-0.4,3.2,1,6.2,4.9,6.4c2,0.1,3.9-0.1,5.8-0.9c2.8-1.2,4.7-3.2,5.5-6.3
		C276.8,252.6,276.4,250.3,276.5,247.8z"/>
	<path class="st0" d="M476.5,257.5c3.2-11.5,6.3-22.7,9.4-33.8c2.4-0.4,11.4-0.3,13.2,0.1c-0.9,2.6-1.8,5.2-2.7,7.8
		c-3.5,10.1-7,20.1-10.5,30.2c-2,5.6-4,11.3-6.1,16.9c-0.8,2.1-1.9,4.1-3.1,6c-1.6,2.5-4,3.8-6.9,4c-2.5,0.2-5.1,0.3-7.6,0.4
		c-0.8,0-1.7-0.2-2.6-0.4c0-3.3,0-6.3,0-9.6c0.5-0.1,1-0.2,1.4-0.2c0.7,0,1.3,0,2,0c4.6-0.1,5.9-2.6,6.6-6.2
		c0.2-0.9-0.2-1.9-0.5-2.7c-2.2-6.3-4.4-12.5-6.7-18.8c-3.2-9.1-6.5-18.3-9.7-27.4c1.6-0.4,9.8-0.5,13.8-0.2
		c1.8,5.5,3.3,11.2,5,16.8C473.1,245.9,474.7,251.5,476.5,257.5z"/>
	<path class="st1" d="M162.4,288.4c0-3.1,0-6.2,0-9.5c42,0,83.9,0,125.8,0c0.5,1.3,0.6,6.7,0.2,9.7c-0.1,0-0.1,0.1-0.2,0.1
		s-0.1,0.1-0.2,0.1c-41.2,0-82.3,0.1-123.5,0.1c-0.4,0-0.7,0-1.1,0c-0.2,0-0.4-0.1-0.6-0.2C162.7,288.7,162.7,288.7,162.4,288.4z"/>
	<path class="st0" d="M246.8,238.8c-4.2,0-7.9,0-11.6,0c-0.3,0-0.6-0.1-0.9-0.2c-0.2-0.6-0.5-1.2-0.7-1.8c-0.6-2.1-2-3.4-4.1-3.8
		c-4.4-0.8-8.5,0-10.8,4.9c-0.8,1.8-1.2,3.7-1.5,5.7c-0.6,3.6-0.1,7,0.6,10.4c0.6,3,2.1,5.7,5.4,6.6c2.6,0.7,5.3,0.9,7.7-1
		c1-0.8,1.7-1.8,2.2-3c0.4-1.1,0.7-2.2,1.1-3.4c1.7-0.5,10.8-0.4,12.5,0.1c-0.5,4.8-2.3,9-5.6,12.5c-2.1,2.2-4.8,3.8-7.8,4.7
		c-5.3,1.5-10.7,1.4-15.9-0.4c-4.2-1.4-7.4-4.1-9.7-7.8c-1.8-3-2.9-6.3-3.2-9.9c-0.1-2-0.4-4.1-0.4-6.1c0.2-4.9,1.1-9.7,3.5-14.1
		c2.6-4.7,6.5-7.8,11.7-9.2c5.5-1.4,11-1.4,16.4,0.4c6,2,9.5,6.2,10.6,12.5C246.5,236.8,246.6,237.7,246.8,238.8z"/>
	<path class="st1" d="M343.1,288.9c0-3.4,0-6.6,0-10c36.9,0,73.7,0,110.6,0c0.3,1.3,0.4,7.4,0.1,9.8c-0.1,0-0.1,0.1-0.2,0.1
		s-0.1,0.1-0.2,0.1c-36.3,0-72.6,0.1-109,0.1C344,289,343.7,288.9,343.1,288.9z"/>
	<path class="st1" d="M362.5,115.7c-0.6-1.2-1-2-1.5-3c0.4-0.4,0.8-0.9,1.1-1.3c0.3,0.1,0.5,0.1,0.6,0.2
		c5.7,5.5,11.5,11.1,17.2,16.6c0.1,0.1,0.2,0.2,0.3,0.5c-0.4,0.4-0.8,0.9-1.1,1.3c-0.3,0-0.4,0-0.5,0c-2.4-1.5-3.7-1.5-5.6,0.5
		c-3.5,3.7-6.9,7.6-10.5,11.2c-2.8,2.8-5.2,5.9-8.2,8.5c-3.1,2.7-6.2,5.6-9.5,8.1c-3,2.2-6.2,4-10,4.8c-1.8,0.4-3.5,0.1-5.2-0.3
		c-2.5-0.6-5-1.6-6.7-3.6c0-0.9,0.5-1.2,1.1-1.4c5.4-1.9,9.4-5.9,13-10.1c4.1-4.7,7.9-9.5,11.9-14.3c3.8-4.6,7.6-9.3,11.3-13.9
		C361.1,118.3,361.7,117,362.5,115.7z"/>
	<path class="st0" d="M80.2,129.3c-0.6-3.9,0.5-7.8-0.7-11.5c-2-0.1-2.4,0.2-2.4,1.8c-0.1,2.5,0,5,0,7.5c0,0.7-0.1,1.4-0.1,2.2
		c-0.5,0.1-0.8,0.1-1.2,0.1c-0.5,0-1-0.1-1.7-0.1c-0.3-2-0.1-4-0.1-5.9s0-3.8,0-5.7c0-2,0-4,0-5.9c0.1-1.9-0.3-3.8,0.3-5.7
		c0.9,0,1.7,0,2.7,0c0.1,3.3,0,6.5,0.1,9.8c0.6-0.3,1.1-0.7,1.7-0.9c1.7-0.7,3.2,0.1,3.7,1.8c0.1,0.3,0.3,0.7,0.3,1.1
		c0,3.7,0,7.4,0,11.3C81.8,129.3,81.1,129.3,80.2,129.3z"/>
	<path class="st0" d="M93.2,122.8c-1.9,0-3.6,0-5.4,0c-0.4,1.4-0.4,2.6,0.3,3.7c0.5,0.8,1.5,0.8,1.9,0c0.3-0.6,0.5-1.2,0.7-1.9
		c0.8,0,1.5,0,2.2,0c0.5,2-0.5,4-2.3,4.8c-2,0.8-4.3,0.2-5.1-1.6c-1.6-3.7-1.6-7.5,0.3-11.2c0.9-1.8,3.2-2.3,4.9-1.2
		c0.5,0.3,1,0.9,1.3,1.4C93.1,118.5,93.4,120.4,93.2,122.8z M88.8,117.6c-1.4,0.8-1.3,2-1.1,3.2c0.9,0,1.6,0,2.5,0
		C90.1,119.4,90.4,118.2,88.8,117.6z"/>
	<path class="st0" d="M73.4,108.5c0,0.7-0.1,1.5-0.2,2.3c-1.1,0.1-2.1,0.2-3.2,0.3c0,6.1,0,12.1,0,18.3c-1.1,0-2,0-3.2,0
		c0-6.1,0-12.1,0-18.3c-1.1-0.1-1.9-0.1-3-0.2c0-0.8-0.1-1.5-0.1-2.3C65.5,108.1,71,108.1,73.4,108.5z"/>
</g>
</svg>
